<svg version="1.1" id="Layer_1" xmlns="http://www.w3.org/2000/svg" xmlns:xlink="http://www.w3.org/1999/xlink" x="0px" y="0px"
	 width="100%" viewBox="0 0 1024 1024" enable-background="new 0 0 1024 1024" xml:space="preserve">
<path fill="#01AB51" opacity="1.000000" stroke="none" 
	d="
M1.000000,371.000000 
	C1.000000,247.333344 1.000000,124.166695 1.000000,1.000033 
	C342.333282,1.000022 683.666565,1.000022 1025.000000,1.000011 
	C1025.000000,342.333252 1025.000000,683.666504 1025.000000,1024.999756 
	C683.666809,1024.999878 342.333618,1024.999878 1.000205,1025.000000 
	C1.000000,807.166687 1.000000,589.333313 1.000000,371.000000 
M103.783127,847.434814 
	C102.951378,850.090515 101.430153,852.738098 101.399071,855.403137 
	C101.187187,873.567017 101.098885,891.737366 101.370430,909.899597 
	C101.503601,918.806824 107.240799,923.838623 116.173615,923.838745 
	C380.505615,923.843567 644.837585,923.843933 909.169617,923.837341 
	C917.905762,923.837097 923.774475,918.418518 923.857605,909.722290 
	C924.029663,891.724121 924.046631,873.721619 923.850037,855.723999 
	C923.755798,847.097534 918.345093,841.967468 909.669434,841.526611 
	C907.674255,841.425232 905.670288,841.487366 903.670410,841.487366 
	C748.171204,841.486145 592.671997,841.486267 437.172791,841.486267 
	C435.053894,841.486267 432.934967,841.486267 430.275543,841.486267 
	C430.275543,836.926392 430.348022,832.963989 430.263763,829.004883 
	C429.728271,803.852051 412.578888,786.935181 387.422638,786.841125 
	C367.089691,786.765137 346.756226,786.824585 326.423004,786.824036 
	C324.650848,786.823975 322.878693,786.824036 321.173767,786.824036 
	C321.173767,777.262573 321.173767,768.368835 321.173767,759.175964 
	C324.212219,759.175964 326.888519,758.908752 329.493683,759.225830 
	C337.376465,760.185242 343.187469,756.895020 348.384003,751.256714 
	C354.590973,744.522156 361.021118,737.948181 367.812042,731.810913 
	C373.453735,726.712402 375.899841,720.918396 375.648987,713.316528 
	C375.254883,701.375732 375.544312,689.412476 375.544312,676.689453 
	C399.275696,678.989624 420.398224,673.943848 437.489410,657.049744 
	C454.763733,639.974609 459.376770,618.519714 457.714478,595.543701 
	C470.491516,594.241638 482.651184,593.627014 494.593079,591.678162 
	C547.894836,582.979675 592.932373,558.592468 629.452026,518.844482 
	C661.523865,483.937500 681.655273,442.964630 687.905457,395.936981 
	C690.504761,376.379639 689.984802,356.408325 690.901550,336.626099 
	C691.063110,333.139923 690.880981,329.566162 691.595764,326.189026 
	C695.866333,306.010376 712.558716,293.199310 734.474976,293.187805 
	C795.641357,293.155701 856.807678,293.176239 917.974060,293.176025 
	C919.881897,293.175995 921.789734,293.175995 923.591187,293.175995 
	C923.591187,283.615387 923.591187,274.863953 923.591187,266.063843 
	C922.617798,265.963867 921.965271,265.838043 921.312744,265.838135 
	C857.479980,265.847534 793.645508,265.593964 729.815125,265.993500 
	C695.052429,266.211060 665.875671,294.472565 663.717163,329.150665 
	C663.086609,339.281525 663.305847,349.473297 663.343750,359.636353 
	C663.507568,403.584595 651.324158,443.765533 625.958801,479.648438 
	C596.992065,520.625916 557.911438,547.506409 509.563171,560.741760 
	C492.844879,565.318420 475.688477,567.217651 458.208191,567.199463 
	C458.208191,557.974548 458.208191,549.100342 458.208191,540.078308 
	C493.482605,539.416504 525.899780,530.136414 555.083374,510.770386 
	C594.229675,484.793182 619.459778,448.837585 631.036438,403.264709 
	C636.815491,380.515015 635.729919,357.335754 636.061768,334.195557 
	C636.615967,295.545868 654.914124,267.463287 688.421082,249.004822 
	C703.074585,240.932388 719.091370,238.468353 735.658936,238.487030 
	C796.325195,238.555389 856.991577,238.513885 917.657959,238.513763 
	C919.617249,238.513748 921.576538,238.513748 923.581299,238.513748 
	C923.581299,229.033997 923.581299,220.139893 923.581299,210.994659 
	C922.260315,210.994659 921.276062,210.994644 920.291748,210.994659 
	C857.458740,210.995377 794.624451,210.795654 731.793945,211.190353 
	C721.086121,211.257629 710.141235,212.863297 699.737610,215.476898 
	C646.396362,228.877243 608.251648,279.304565 608.444153,334.372864 
	C608.506897,352.311493 609.051147,370.661194 605.715088,388.123627 
	C594.527161,446.686798 559.494873,485.559387 503.362885,505.292328 
	C488.874817,510.385559 473.769470,512.576904 457.857330,512.193481 
	C457.857330,504.773224 457.857330,497.647217 457.857330,490.521210 
	C457.857330,488.897980 457.857330,487.274750 457.857330,485.778107 
	C465.749695,484.787170 473.261475,484.422150 480.507843,482.840759 
	C529.527039,472.143433 561.820679,442.703888 576.289795,394.744598 
	C579.738220,383.314606 580.312012,370.834839 580.919800,358.773041 
	C581.840088,340.510773 579.785767,322.087891 584.009705,304.009796 
	C596.379395,251.068954 627.655701,214.153809 677.996826,193.568649 
	C696.442444,186.025970 715.822632,183.469925 735.657227,183.490845 
	C796.323547,183.554810 856.989929,183.513885 917.656311,183.513763 
	C919.615540,183.513748 921.574829,183.513748 923.657349,183.513748 
	C923.657349,174.178131 923.657349,165.427078 923.657349,156.351212 
	C922.132996,156.279480 920.836548,156.165268 919.540100,156.165115 
	C857.207092,156.157639 794.873962,156.117569 732.541077,156.190216 
	C716.321655,156.209106 700.314270,158.281311 684.658264,162.575592 
	C605.654663,184.245422 551.459961,258.283752 553.668701,337.416656 
	C554.057556,351.348175 553.913025,365.532776 551.778625,379.252655 
	C544.887756,423.548553 503.130310,458.054352 458.246277,457.515350 
	C458.246277,448.476532 458.246277,439.439484 458.246277,430.332550 
	C459.272949,430.229797 459.920410,430.132965 460.570892,430.104523 
	C493.076721,428.683655 520.262756,405.176178 524.981567,373.058441 
	C526.758911,360.961151 526.223938,348.474792 526.179810,336.167877 
	C526.002625,286.820404 541.136414,242.730515 572.529297,204.771484 
	C612.257751,156.733337 663.635681,130.464294 726.091614,129.219772 
	C789.899719,127.948326 853.751587,128.877106 917.584290,128.842865 
	C919.534363,128.841812 921.484436,128.842728 923.623657,128.842728 
	C923.623657,119.397469 923.623657,110.505035 923.623657,101.343277 
	C922.210754,101.271957 921.079041,101.164925 919.947266,101.164833 
	C857.114258,101.159492 794.279419,100.865517 731.448792,101.256241 
	C677.346680,101.592690 628.646912,118.416618 586.443726,152.412125 
	C541.867004,188.319534 513.968689,234.559723 502.738831,290.875732 
	C498.359467,312.837830 499.056671,334.956482 498.897095,357.095123 
	C498.866028,361.406952 498.728516,365.792572 497.934937,370.011505 
	C494.407104,388.766693 476.609833,403.390594 457.857544,402.476074 
	C457.857544,400.526306 457.857513,398.553253 457.857513,396.580231 
	C457.857361,303.914032 457.860748,211.247833 457.853027,118.581642 
	C457.851990,106.161514 452.927246,101.162331 440.697540,101.161324 
	C351.531342,101.153954 262.365112,101.153770 173.198914,101.161644 
	C161.106415,101.162712 156.110214,106.107758 156.109787,118.067268 
	C156.104050,280.566437 156.091537,443.065582 156.166077,605.564758 
	C156.168579,611.031921 156.517471,616.614319 157.638336,621.946777 
	C164.551651,654.836609 191.818573,676.844482 225.466141,677.002441 
	C229.711090,677.022400 233.956207,677.005188 238.378891,677.005188 
	C238.378891,690.436096 238.069122,703.110046 238.558456,715.753052 
	C238.715164,719.801941 239.918839,724.720276 242.485168,727.598999 
	C250.899170,737.037415 260.138245,745.742737 269.106293,754.683533 
	C272.471436,758.038391 276.579315,759.446167 281.362946,759.211365 
	C285.141907,759.025818 288.937195,759.174011 292.858795,759.174011 
	C292.858795,768.621643 292.858795,777.514282 292.858795,786.824036 
	C290.747955,786.824036 288.949463,786.823914 287.150970,786.824097 
	C266.484406,786.826477 245.816254,786.668030 225.151703,786.873413 
	C201.066208,787.112793 183.838150,804.642212 183.661118,828.726562 
	C183.631012,832.823975 183.656860,836.921814 183.656860,841.486206 
	C181.133865,841.486206 179.337006,841.486206 177.540131,841.486206 
	C157.540237,841.486511 137.540253,841.516357 117.540482,841.467163 
	C112.327492,841.454346 107.574066,842.342224 103.783127,847.434814 
M898.868286,635.990662 
	C898.044861,636.727478 896.521179,637.449707 896.505432,638.203369 
	C896.333862,646.437256 896.398010,654.676086 896.398010,663.075745 
	C905.868591,663.075745 914.760803,663.075745 923.561584,663.075745 
	C923.561584,653.919373 923.561584,645.046021 923.561584,635.987000 
	C915.400208,635.987000 907.604492,635.987000 898.868286,635.990662 
M923.928650,761.481689 
	C923.928650,756.361206 923.928650,751.240723 923.928650,746.029663 
	C914.540466,746.029663 905.610901,746.029663 896.660767,746.029663 
	C896.660767,755.120605 896.660767,763.889465 896.660767,772.718201 
	C905.838440,772.718201 914.731873,772.718201 923.928650,772.718201 
	C923.928650,769.088257 923.928650,765.780212 923.928650,761.481689 
M902.634583,690.875061 
	C900.696777,690.875061 898.758972,690.875061 896.641846,690.875061 
	C896.641846,700.203796 896.641846,708.950623 896.641846,717.860046 
	C905.785400,717.860046 914.665039,717.860046 923.682129,717.860046 
	C923.682129,708.818848 923.682129,700.082275 923.682129,690.875061 
	C916.830383,690.875061 910.218384,690.875061 902.634583,690.875061 
M594.916138,656.457703 
	C594.916138,658.693542 594.916138,660.929321 594.916138,662.991699 
	C604.424622,662.991699 613.143555,662.991699 621.969910,662.991699 
	C621.969910,653.921997 621.969910,645.196350 621.969910,636.301941 
	C612.895996,636.301941 604.043457,636.301941 594.916138,636.301941 
	C594.916138,642.890381 594.916138,649.177002 594.916138,656.457703 
M746.560242,663.158936 
	C755.282288,663.158936 764.004333,663.158936 772.822876,663.158936 
	C772.822876,653.928406 772.822876,645.194702 772.822876,636.293945 
	C763.744080,636.293945 754.880005,636.293945 745.879883,636.293945 
	C745.879883,645.204224 745.879883,653.819275 746.560242,663.158936 
M547.556152,718.149780 
	C554.113464,718.149780 560.670837,718.149780 567.030396,718.149780 
	C567.030396,708.614990 567.030396,699.900574 567.030396,691.110046 
	C557.935181,691.110046 549.201904,691.110046 540.325317,691.110046 
	C540.325317,700.191406 540.325317,709.047607 540.325317,718.149780 
	C542.619080,718.149780 544.595337,718.149780 547.556152,718.149780 
M594.931946,692.681152 
	C594.931946,701.107483 594.931946,709.533752 594.931946,717.827637 
	C604.382568,717.827637 613.135010,717.827637 621.904053,717.827637 
	C621.904053,708.759033 621.904053,700.015320 621.904053,690.510010 
	C612.745605,690.920654 603.889282,691.317749 594.931946,692.681152 
M704.500122,718.149353 
	C708.939270,718.149353 713.378418,718.149353 717.894897,718.149353 
	C717.894897,708.806152 717.894897,700.063782 717.894897,691.272095 
	C708.772400,691.272095 699.908752,691.272095 691.227661,691.272095 
	C691.227661,700.408081 691.227661,709.157227 691.227661,718.149353 
	C695.545166,718.149353 699.525085,718.149353 704.500122,718.149353 
M771.313904,718.128906 
	C771.869812,717.668091 772.905273,717.212769 772.910522,716.745728 
	C773.007812,708.189392 772.981689,699.631653 772.981689,691.155151 
	C763.608032,691.155151 754.875977,691.155151 746.110840,691.155151 
	C746.110840,700.257324 746.110840,709.086975 746.110840,718.146423 
	C754.442566,718.146423 762.392944,718.146423 771.313904,718.128906 
M868.268311,718.007141 
	C868.268311,709.033691 868.268311,700.060303 868.268311,691.152100 
	C859.581665,691.152100 850.843567,691.152100 842.066162,691.152100 
	C842.066162,700.250061 842.066162,709.078735 842.066162,718.128479 
	C850.736450,718.128479 859.020447,718.128479 868.268311,718.007141 
M622.189148,750.557068 
	C622.189148,748.998413 622.189148,747.439758 622.189148,746.074463 
	C612.624390,746.074463 603.912903,746.074463 595.146790,746.074463 
	C595.146790,755.144958 595.146790,763.867126 595.146790,772.718750 
	C604.229309,772.718750 613.078430,772.718750 622.189148,772.718750 
	C622.189148,765.452637 622.189148,758.501465 622.189148,750.557068 
M767.395630,773.035645 
	C769.163269,773.035645 770.930969,773.035645 772.678101,773.035645 
	C772.678101,763.617981 772.678101,754.757446 772.678101,746.036255 
	C763.582886,746.036255 754.848145,746.036255 745.933838,746.036255 
	C745.933838,755.070618 745.933838,763.796387 745.933838,773.035645 
	C752.893250,773.035645 759.656494,773.035645 767.395630,773.035645 
z"/>
<path fill="#FCFEFD" opacity="1.000000" stroke="none" 
	d="
M103.997177,847.127319 
	C107.574066,842.342224 112.327492,841.454346 117.540482,841.467163 
	C137.540253,841.516357 157.540237,841.486511 177.540131,841.486206 
	C179.337006,841.486206 181.133865,841.486206 183.656860,841.486206 
	C183.656860,836.921814 183.631012,832.823975 183.661118,828.726562 
	C183.838150,804.642212 201.066208,787.112793 225.151703,786.873413 
	C245.816254,786.668030 266.484406,786.826477 287.150970,786.824097 
	C288.949463,786.823914 290.747955,786.824036 292.858795,786.824036 
	C292.858795,777.514282 292.858795,768.621643 292.858795,759.174011 
	C288.937195,759.174011 285.141907,759.025818 281.362946,759.211365 
	C276.579315,759.446167 272.471436,758.038391 269.106293,754.683533 
	C260.138245,745.742737 250.899170,737.037415 242.485168,727.598999 
	C239.918839,724.720276 238.715164,719.801941 238.558456,715.753052 
	C238.069122,703.110046 238.378891,690.436096 238.378891,677.005188 
	C233.956207,677.005188 229.711090,677.022400 225.466141,677.002441 
	C191.818573,676.844482 164.551651,654.836609 157.638336,621.946777 
	C156.517471,616.614319 156.168579,611.031921 156.166077,605.564758 
	C156.091537,443.065582 156.104050,280.566437 156.109787,118.067268 
	C156.110214,106.107758 161.106415,101.162712 173.198914,101.161644 
	C262.365112,101.153770 351.531342,101.153954 440.697540,101.161324 
	C452.927246,101.162331 457.851990,106.161514 457.853027,118.581642 
	C457.860748,211.247833 457.857361,303.914032 457.857513,396.580231 
	C457.857513,398.553253 457.857544,400.526306 457.857544,402.476074 
	C476.609833,403.390594 494.407104,388.766693 497.934937,370.011505 
	C498.728516,365.792572 498.866028,361.406952 498.897095,357.095123 
	C499.056671,334.956482 498.359467,312.837830 502.738831,290.875732 
	C513.968689,234.559723 541.867004,188.319534 586.443726,152.412125 
	C628.646912,118.416618 677.346680,101.592690 731.448792,101.256241 
	C794.279419,100.865517 857.114258,101.159492 919.947266,101.164833 
	C921.079041,101.164925 922.210754,101.271957 923.623657,101.343277 
	C923.623657,110.505035 923.623657,119.397469 923.623657,128.842728 
	C921.484436,128.842728 919.534363,128.841812 917.584290,128.842865 
	C853.751587,128.877106 789.899719,127.948326 726.091614,129.219772 
	C663.635681,130.464294 612.257751,156.733337 572.529297,204.771484 
	C541.136414,242.730515 526.002625,286.820404 526.179810,336.167877 
	C526.223938,348.474792 526.758911,360.961151 524.981567,373.058441 
	C520.262756,405.176178 493.076721,428.683655 460.570892,430.104523 
	C459.920410,430.132965 459.272949,430.229797 458.246277,430.332550 
	C458.246277,439.439484 458.246277,448.476532 458.246277,457.515350 
	C503.130310,458.054352 544.887756,423.548553 551.778625,379.252655 
	C553.913025,365.532776 554.057556,351.348175 553.668701,337.416656 
	C551.459961,258.283752 605.654663,184.245422 684.658264,162.575592 
	C700.314270,158.281311 716.321655,156.209106 732.541077,156.190216 
	C794.873962,156.117569 857.207092,156.157639 919.540100,156.165115 
	C920.836548,156.165268 922.132996,156.279480 923.657349,156.351212 
	C923.657349,165.427078 923.657349,174.178131 923.657349,183.513748 
	C921.574829,183.513748 919.615540,183.513748 917.656311,183.513763 
	C856.989929,183.513885 796.323547,183.554810 735.657227,183.490845 
	C715.822632,183.469925 696.442444,186.025970 677.996826,193.568649 
	C627.655701,214.153809 596.379395,251.068954 584.009705,304.009796 
	C579.785767,322.087891 581.840088,340.510773 580.919800,358.773041 
	C580.312012,370.834839 579.738220,383.314606 576.289795,394.744598 
	C561.820679,442.703888 529.527039,472.143433 480.507843,482.840759 
	C473.261475,484.422150 465.749695,484.787170 457.857330,485.778107 
	C457.857330,487.274750 457.857330,488.897980 457.857330,490.521210 
	C457.857330,497.647217 457.857330,504.773224 457.857330,512.193481 
	C473.769470,512.576904 488.874817,510.385559 503.362885,505.292328 
	C559.494873,485.559387 594.527161,446.686798 605.715088,388.123627 
	C609.051147,370.661194 608.506897,352.311493 608.444153,334.372864 
	C608.251648,279.304565 646.396362,228.877243 699.737610,215.476898 
	C710.141235,212.863297 721.086121,211.257629 731.793945,211.190353 
	C794.624451,210.795654 857.458740,210.995377 920.291748,210.994659 
	C921.276062,210.994644 922.260315,210.994659 923.581299,210.994659 
	C923.581299,220.139893 923.581299,229.033997 923.581299,238.513748 
	C921.576538,238.513748 919.617249,238.513748 917.657959,238.513763 
	C856.991577,238.513885 796.325195,238.555389 735.658936,238.487030 
	C719.091370,238.468353 703.074585,240.932388 688.421082,249.004822 
	C654.914124,267.463287 636.615967,295.545868 636.061768,334.195557 
	C635.729919,357.335754 636.815491,380.515015 631.036438,403.264709 
	C619.459778,448.837585 594.229675,484.793182 555.083374,510.770386 
	C525.899780,530.136414 493.482605,539.416504 458.208191,540.078308 
	C458.208191,549.100342 458.208191,557.974548 458.208191,567.199463 
	C475.688477,567.217651 492.844879,565.318420 509.563171,560.741760 
	C557.911438,547.506409 596.992065,520.625916 625.958801,479.648438 
	C651.324158,443.765533 663.507568,403.584595 663.343750,359.636353 
	C663.305847,349.473297 663.086609,339.281525 663.717163,329.150665 
	C665.875671,294.472565 695.052429,266.211060 729.815125,265.993500 
	C793.645508,265.593964 857.479980,265.847534 921.312744,265.838135 
	C921.965271,265.838043 922.617798,265.963867 923.591187,266.063843 
	C923.591187,274.863953 923.591187,283.615387 923.591187,293.175995 
	C921.789734,293.175995 919.881897,293.175995 917.974060,293.176025 
	C856.807678,293.176239 795.641357,293.155701 734.474976,293.187805 
	C712.558716,293.199310 695.866333,306.010376 691.595764,326.189026 
	C690.880981,329.566162 691.063110,333.139923 690.901550,336.626099 
	C689.984802,356.408325 690.504761,376.379639 687.905457,395.936981 
	C681.655273,442.964630 661.523865,483.937500 629.452026,518.844482 
	C592.932373,558.592468 547.894836,582.979675 494.593079,591.678162 
	C482.651184,593.627014 470.491516,594.241638 457.714478,595.543701 
	C459.376770,618.519714 454.763733,639.974609 437.489410,657.049744 
	C420.398224,673.943848 399.275696,678.989624 375.544312,676.689453 
	C375.544312,689.412476 375.254883,701.375732 375.648987,713.316528 
	C375.899841,720.918396 373.453735,726.712402 367.812042,731.810913 
	C361.021118,737.948181 354.590973,744.522156 348.384003,751.256714 
	C343.187469,756.895020 337.376465,760.185242 329.493683,759.225830 
	C326.888519,758.908752 324.212219,759.175964 321.173767,759.175964 
	C321.173767,768.368835 321.173767,777.262573 321.173767,786.824036 
	C322.878693,786.824036 324.650848,786.823975 326.423004,786.824036 
	C346.756226,786.824585 367.089691,786.765137 387.422638,786.841125 
	C412.578888,786.935181 429.728271,803.852051 430.263763,829.004883 
	C430.348022,832.963989 430.275543,836.926392 430.275543,841.486267 
	C432.934967,841.486267 435.053894,841.486267 437.172791,841.486267 
	C592.671997,841.486267 748.171204,841.486145 903.670410,841.487366 
	C905.670288,841.487366 907.674255,841.425232 909.669434,841.526611 
	C918.345093,841.967468 923.755798,847.097534 923.850037,855.723999 
	C924.046631,873.721619 924.029663,891.724121 923.857605,909.722290 
	C923.774475,918.418518 917.905762,923.837097 909.169617,923.837341 
	C644.837585,923.843933 380.505615,923.843567 116.173615,923.838745 
	C107.240799,923.838623 101.503601,918.806824 101.370430,909.899597 
	C101.098885,891.737366 101.187187,873.567017 101.399071,855.403137 
	C101.430153,852.738098 102.951378,850.090515 103.997177,847.127319 
M430.266541,481.500183 
	C430.266541,364.095825 430.266541,246.691498 430.266541,129.122482 
	C347.846283,129.122482 265.970367,129.122482 183.959137,129.122482 
	C183.959137,275.264984 183.959137,421.125214 183.959137,567.174805 
	C266.105804,567.174805 347.962982,567.174805 430.267395,567.174805 
	C430.267395,538.741516 430.267395,510.620850 430.266541,481.500183 
M418.500000,868.997437 
	C322.066864,868.997437 225.633728,868.997437 129.220123,868.997437 
	C129.220123,878.422485 129.220123,887.296143 129.220123,896.085022 
	C385.115204,896.085022 640.636169,896.085022 896.154785,896.085022 
	C896.154785,886.872314 896.154785,878.084839 896.154785,868.997437 
	C737.101196,868.997437 578.300598,868.997437 418.500000,868.997437 
M374.498047,649.826111 
	C378.663544,649.825867 382.829041,649.836975 386.994507,649.823364 
	C415.212769,649.731262 435.240601,627.618896 429.556885,595.205322 
	C347.661987,595.205322 265.781525,595.205322 183.337616,595.205322 
	C183.734756,602.721313 183.269852,610.017151 184.647217,616.946777 
	C188.641327,637.041016 205.426376,649.789551 227.038910,649.810547 
	C275.858856,649.857910 324.678864,649.825867 374.498047,649.826111 
M213.914597,841.510803 
	C276.842468,841.510803 339.770325,841.510803 402.974182,841.510803 
	C402.974182,837.902344 402.976227,834.912415 402.973816,831.922485 
	C402.963379,818.902649 398.233490,814.161865 385.220581,814.160583 
	C340.569824,814.156372 295.919037,814.158508 251.268265,814.158936 
	C242.771286,814.159058 234.273209,814.077148 225.777679,814.189209 
	C218.460312,814.285706 213.072327,817.614868 211.847321,823.939087 
	C210.819946,829.242981 211.252869,834.836792 211.183517,840.304077 
	C211.178619,840.691650 212.362411,841.094360 213.914597,841.510803 
M333.502350,727.062927 
	C337.615448,722.941101 341.757507,718.847534 345.818878,714.675415 
	C346.700867,713.769409 347.910370,712.590088 347.924622,711.522705 
	C348.077179,700.111633 348.019470,688.697693 348.019470,677.263794 
	C320.388306,677.263794 293.343781,677.263794 265.925964,677.263794 
	C265.925964,688.629822 265.860413,699.743103 266.016815,710.853271 
	C266.034485,712.108887 267.077637,713.563904 268.030792,714.556152 
	C272.639404,719.353394 277.529327,723.887451 282.012665,728.795105 
	C284.375885,731.381958 286.892578,732.138489 290.290466,732.070557 
	C300.770233,731.860901 311.261597,731.809448 321.738586,732.079285 
	C326.324188,732.197388 330.233643,731.580750 333.502350,727.062927 
z"/>
<path fill="#FAFDFB" opacity="1.000000" stroke="none" 
	d="
M899.338562,635.988831 
	C907.604492,635.987000 915.400208,635.987000 923.561584,635.987000 
	C923.561584,645.046021 923.561584,653.919373 923.561584,663.075745 
	C914.760803,663.075745 905.868591,663.075745 896.398010,663.075745 
	C896.398010,654.676086 896.333862,646.437256 896.505432,638.203369 
	C896.521179,637.449707 898.044861,636.727478 899.338562,635.988831 
z"/>
<path fill="#FAFDFB" opacity="1.000000" stroke="none" 
	d="
M923.928650,761.976929 
	C923.928650,765.780212 923.928650,769.088257 923.928650,772.718201 
	C914.731873,772.718201 905.838440,772.718201 896.660767,772.718201 
	C896.660767,763.889465 896.660767,755.120605 896.660767,746.029663 
	C905.610901,746.029663 914.540466,746.029663 923.928650,746.029663 
	C923.928650,751.240723 923.928650,756.361206 923.928650,761.976929 
z"/>
<path fill="#FAFDFB" opacity="1.000000" stroke="none" 
	d="
M903.120483,690.875061 
	C910.218384,690.875061 916.830383,690.875061 923.682129,690.875061 
	C923.682129,700.082275 923.682129,708.818848 923.682129,717.860046 
	C914.665039,717.860046 905.785400,717.860046 896.641846,717.860046 
	C896.641846,708.950623 896.641846,700.203796 896.641846,690.875061 
	C898.758972,690.875061 900.696777,690.875061 903.120483,690.875061 
z"/>
<path fill="#FFFFFF" opacity="1.000000" stroke="none" 
	d="
M594.916138,655.960632 
	C594.916138,649.177002 594.916138,642.890381 594.916138,636.301941 
	C604.043457,636.301941 612.895996,636.301941 621.969910,636.301941 
	C621.969910,645.196350 621.969910,653.921997 621.969910,662.991699 
	C613.143555,662.991699 604.424622,662.991699 594.916138,662.991699 
	C594.916138,660.929321 594.916138,658.693542 594.916138,655.960632 
z"/>
<path fill="#FFFFFF" opacity="1.000000" stroke="none" 
	d="
M746.220093,662.796631 
	C745.879883,653.819275 745.879883,645.204224 745.879883,636.293945 
	C754.880005,636.293945 763.744080,636.293945 772.822876,636.293945 
	C772.822876,645.194702 772.822876,653.928406 772.822876,663.158936 
	C764.004333,663.158936 755.282288,663.158936 746.220093,662.796631 
z"/>
<path fill="#FFFFFF" opacity="1.000000" stroke="none" 
	d="
M547.063843,718.149780 
	C544.595337,718.149780 542.619080,718.149780 540.325317,718.149780 
	C540.325317,709.047607 540.325317,700.191406 540.325317,691.110046 
	C549.201904,691.110046 557.935181,691.110046 567.030396,691.110046 
	C567.030396,699.900574 567.030396,708.614990 567.030396,718.149780 
	C560.670837,718.149780 554.113464,718.149780 547.063843,718.149780 
z"/>
<path fill="#FFFFFF" opacity="1.000000" stroke="none" 
	d="
M594.982483,692.197998 
	C603.889282,691.317749 612.745605,690.920654 621.904053,690.510010 
	C621.904053,700.015320 621.904053,708.759033 621.904053,717.827637 
	C613.135010,717.827637 604.382568,717.827637 594.931946,717.827637 
	C594.931946,709.533752 594.931946,701.107483 594.982483,692.197998 
z"/>
<path fill="#FFFFFF" opacity="1.000000" stroke="none" 
	d="
M704.002563,718.149353 
	C699.525085,718.149353 695.545166,718.149353 691.227661,718.149353 
	C691.227661,709.157227 691.227661,700.408081 691.227661,691.272095 
	C699.908752,691.272095 708.772400,691.272095 717.894897,691.272095 
	C717.894897,700.063782 717.894897,708.806152 717.894897,718.149353 
	C713.378418,718.149353 708.939270,718.149353 704.002563,718.149353 
z"/>
<path fill="#FFFFFF" opacity="1.000000" stroke="none" 
	d="
M770.828613,718.137695 
	C762.392944,718.146423 754.442566,718.146423 746.110840,718.146423 
	C746.110840,709.086975 746.110840,700.257324 746.110840,691.155151 
	C754.875977,691.155151 763.608032,691.155151 772.981689,691.155151 
	C772.981689,699.631653 773.007812,708.189392 772.910522,716.745728 
	C772.905273,717.212769 771.869812,717.668091 770.828613,718.137695 
z"/>
<path fill="#FFFFFF" opacity="1.000000" stroke="none" 
	d="
M867.786377,718.067810 
	C859.020447,718.128479 850.736450,718.128479 842.066162,718.128479 
	C842.066162,709.078735 842.066162,700.250061 842.066162,691.152100 
	C850.843567,691.152100 859.581665,691.152100 868.268311,691.152100 
	C868.268311,700.060303 868.268311,709.033691 867.786377,718.067810 
z"/>
<path fill="#FFFFFF" opacity="1.000000" stroke="none" 
	d="
M622.189148,751.053711 
	C622.189148,758.501465 622.189148,765.452637 622.189148,772.718750 
	C613.078430,772.718750 604.229309,772.718750 595.146790,772.718750 
	C595.146790,763.867126 595.146790,755.144958 595.146790,746.074463 
	C603.912903,746.074463 612.624390,746.074463 622.189148,746.074463 
	C622.189148,747.439758 622.189148,748.998413 622.189148,751.053711 
z"/>
<path fill="#FFFFFF" opacity="1.000000" stroke="none" 
	d="
M766.907715,773.035645 
	C759.656494,773.035645 752.893250,773.035645 745.933838,773.035645 
	C745.933838,763.796387 745.933838,755.070618 745.933838,746.036255 
	C754.848145,746.036255 763.582886,746.036255 772.678101,746.036255 
	C772.678101,754.757446 772.678101,763.617981 772.678101,773.035645 
	C770.930969,773.035645 769.163269,773.035645 766.907715,773.035645 
z"/>
<path fill="#02AB52" opacity="1.000000" stroke="none" 
	d="
M430.266968,482.000183 
	C430.267395,510.620850 430.267395,538.741516 430.267395,567.174805 
	C347.962982,567.174805 266.105804,567.174805 183.959137,567.174805 
	C183.959137,421.125214 183.959137,275.264984 183.959137,129.122482 
	C265.970367,129.122482 347.846283,129.122482 430.266541,129.122482 
	C430.266541,246.691498 430.266541,364.095825 430.266968,482.000183 
M210.995178,178.311935 
	C210.995178,179.931595 210.995178,181.551270 210.995178,183.260132 
	C238.625778,183.260132 265.777802,183.260132 292.929871,183.260132 
	C292.929871,174.082397 292.929871,165.325317 292.929871,156.499725 
	C265.496735,156.499725 238.332993,156.499725 210.995178,156.499725 
	C210.995178,163.712738 210.995178,170.533371 210.995178,178.311935 
M402.975616,171.484451 
	C402.975616,166.405396 402.975616,161.326340 402.975616,156.449432 
	C375.128235,156.449432 348.070831,156.449432 320.984863,156.449432 
	C320.984863,165.574188 320.984863,174.353958 320.984863,183.306732 
	C348.389984,183.306732 375.566895,183.306732 402.975616,183.306732 
	C402.975616,179.448135 402.975616,175.960037 402.975616,171.484451 
M402.975525,450.406799 
	C402.975525,443.815369 402.975525,437.223938 402.975525,430.559662 
	C375.275330,430.559662 348.217224,430.559662 321.109589,430.559662 
	C321.109589,439.743256 321.109589,448.627869 321.109589,457.570068 
	C348.510101,457.570068 375.558075,457.570068 402.975525,457.570068 
	C402.975525,455.313782 402.975525,453.346588 402.975525,450.406799 
M293.197296,443.505188 
	C293.197296,439.234802 293.197296,434.964386 293.197296,430.533081 
	C265.540649,430.533081 238.493179,430.533081 211.283173,430.533081 
	C211.283173,439.688324 211.283173,448.573761 211.283173,457.603973 
	C238.618637,457.603973 265.665619,457.603973 293.197296,457.603973 
	C293.197296,453.069733 293.197296,448.783569 293.197296,443.505188 
M356.499725,238.388260 
	C371.900940,238.388260 387.302155,238.388260 402.689148,238.388260 
	C402.689148,228.858276 402.689148,220.106110 402.689148,211.261200 
	C375.332214,211.261200 348.251495,211.261200 321.150940,211.261200 
	C321.150940,220.404755 321.150940,229.287674 321.150940,238.388275 
	C332.851898,238.388275 344.175781,238.388275 356.499725,238.388260 
M235.500305,375.535004 
	C227.435501,375.535004 219.370712,375.535004 211.392303,375.535004 
	C211.392303,385.106140 211.392303,393.974213 211.392303,402.653198 
	C238.822006,402.653198 265.863129,402.653198 292.774933,402.653198 
	C292.774933,393.467499 292.774933,384.598999 292.774933,375.534943 
	C273.744141,375.534943 255.122238,375.534943 235.500305,375.535004 
M262.499695,238.387726 
	C272.583252,238.387726 282.666779,238.387726 292.828766,238.387726 
	C292.828766,228.954651 292.828766,220.102722 292.828766,211.258011 
	C265.444824,211.258011 238.416199,211.258011 211.319092,211.258011 
	C211.319092,220.398361 211.319092,229.282806 211.319092,238.387756 
	C228.254364,238.387756 244.877014,238.387756 262.499695,238.387726 
M293.182953,286.452240 
	C293.182953,279.696991 293.182953,272.941711 293.182953,266.200104 
	C265.456787,266.200104 238.401917,266.200104 211.238281,266.200104 
	C211.238281,275.235443 211.238281,283.983887 211.238281,292.793884 
	C238.645599,292.793884 265.818573,292.793884 293.182953,292.793884 
	C293.182953,290.749451 293.182953,289.093536 293.182953,286.452240 
M371.500031,265.914246 
	C354.733429,265.914246 337.966827,265.914246 321.171753,265.914246 
	C321.171753,275.288452 321.171753,284.143250 321.171753,292.825623 
	C348.614349,292.825623 375.657135,292.825623 402.673401,292.825623 
	C402.673401,283.722992 402.673401,274.981232 402.673401,265.914246 
	C392.423798,265.914246 382.461945,265.914246 371.500031,265.914246 
M233.500031,348.056335 
	C253.265121,348.056335 273.030212,348.056335 292.779480,348.056335 
	C292.779480,338.651581 292.779480,329.786530 292.779480,321.149475 
	C265.326935,321.149475 238.278992,321.149475 211.301147,321.149475 
	C211.301147,330.273773 211.301147,339.019348 211.301147,348.056335 
	C218.562378,348.056335 225.531235,348.056335 233.500031,348.056335 
M402.964325,325.613342 
	C402.964325,324.054871 402.964325,322.496399 402.964325,321.165466 
	C375.078369,321.165466 348.026459,321.165466 321.111145,321.165466 
	C321.111145,330.297485 321.111145,339.033966 321.111145,347.767456 
	C348.505127,347.767456 375.560150,347.767456 402.964355,347.767456 
	C402.964355,340.520935 402.964355,333.558075 402.964325,325.613342 
M368.500366,375.534454 
	C352.754364,375.534454 337.008362,375.534454 321.104919,375.534454 
	C321.104919,384.936218 321.104919,393.792999 321.104919,402.734375 
	C348.472168,402.734375 375.505463,402.734375 402.677551,402.734375 
	C402.677551,393.612152 402.677551,384.723297 402.677551,375.534393 
	C391.427948,375.534393 380.464172,375.534393 368.500366,375.534454 
z"/>
<path fill="#06AC54" opacity="1.000000" stroke="none" 
	d="
M419.000000,868.997437 
	C578.300598,868.997437 737.101196,868.997437 896.154785,868.997437 
	C896.154785,878.084839 896.154785,886.872314 896.154785,896.085022 
	C640.636169,896.085022 385.115204,896.085022 129.220123,896.085022 
	C129.220123,887.296143 129.220123,878.422485 129.220123,868.997437 
	C225.633728,868.997437 322.066864,868.997437 419.000000,868.997437 
z"/>
<path fill="#02AB52" opacity="1.000000" stroke="none" 
	d="
M373.998444,649.826111 
	C324.678864,649.825867 275.858856,649.857910 227.038910,649.810547 
	C205.426376,649.789551 188.641327,637.041016 184.647217,616.946777 
	C183.269852,610.017151 183.734756,602.721313 183.337616,595.205322 
	C265.781525,595.205322 347.661987,595.205322 429.556885,595.205322 
	C435.240601,627.618896 415.212769,649.731262 386.994507,649.823364 
	C382.829041,649.836975 378.663544,649.825867 373.998444,649.826111 
z"/>
<path fill="#08AD56" opacity="1.000000" stroke="none" 
	d="
M213.454041,841.500427 
	C212.362411,841.094360 211.178619,840.691650 211.183517,840.304077 
	C211.252869,834.836792 210.819946,829.242981 211.847321,823.939087 
	C213.072327,817.614868 218.460312,814.285706 225.777679,814.189209 
	C234.273209,814.077148 242.771286,814.159058 251.268265,814.158936 
	C295.919037,814.158508 340.569824,814.156372 385.220581,814.160583 
	C398.233490,814.161865 402.963379,818.902649 402.973816,831.922485 
	C402.976227,834.912415 402.974182,837.902344 402.974182,841.510803 
	C339.770325,841.510803 276.842468,841.510803 213.454041,841.500427 
z"/>
<path fill="#01AB51" opacity="1.000000" stroke="none" 
	d="
M333.247803,727.322510 
	C330.233643,731.580750 326.324188,732.197388 321.738586,732.079285 
	C311.261597,731.809448 300.770233,731.860901 290.290466,732.070557 
	C286.892578,732.138489 284.375885,731.381958 282.012665,728.795105 
	C277.529327,723.887451 272.639404,719.353394 268.030792,714.556152 
	C267.077637,713.563904 266.034485,712.108887 266.016815,710.853271 
	C265.860413,699.743103 265.925964,688.629822 265.925964,677.263794 
	C293.343781,677.263794 320.388306,677.263794 348.019470,677.263794 
	C348.019470,688.697693 348.077179,700.111633 347.924622,711.522705 
	C347.910370,712.590088 346.700867,713.769409 345.818878,714.675415 
	C341.757507,718.847534 337.615448,722.941101 333.247803,727.322510 
z"/>
<path fill="#FAFDFB" opacity="1.000000" stroke="none" 
	d="
M210.995178,177.832977 
	C210.995178,170.533371 210.995178,163.712738 210.995178,156.499725 
	C238.332993,156.499725 265.496735,156.499725 292.929871,156.499725 
	C292.929871,165.325317 292.929871,174.082397 292.929871,183.260132 
	C265.777802,183.260132 238.625778,183.260132 210.995178,183.260132 
	C210.995178,181.551270 210.995178,179.931595 210.995178,177.832977 
z"/>
<path fill="#F9FDFB" opacity="1.000000" stroke="none" 
	d="
M402.975616,171.978210 
	C402.975616,175.960037 402.975616,179.448135 402.975616,183.306732 
	C375.566895,183.306732 348.389984,183.306732 320.984863,183.306732 
	C320.984863,174.353958 320.984863,165.574188 320.984863,156.449432 
	C348.070831,156.449432 375.128235,156.449432 402.975616,156.449432 
	C402.975616,161.326340 402.975616,166.405396 402.975616,171.978210 
z"/>
<path fill="#F9FDFB" opacity="1.000000" stroke="none" 
	d="
M402.975525,450.893097 
	C402.975525,453.346588 402.975525,455.313782 402.975525,457.570068 
	C375.558075,457.570068 348.510101,457.570068 321.109589,457.570068 
	C321.109589,448.627869 321.109589,439.743256 321.109589,430.559662 
	C348.217224,430.559662 375.275330,430.559662 402.975525,430.559662 
	C402.975525,437.223938 402.975525,443.815369 402.975525,450.893097 
z"/>
<path fill="#FAFDFB" opacity="1.000000" stroke="none" 
	d="
M293.197296,444.001282 
	C293.197296,448.783569 293.197296,453.069733 293.197296,457.603973 
	C265.665619,457.603973 238.618637,457.603973 211.283173,457.603973 
	C211.283173,448.573761 211.283173,439.688324 211.283173,430.533081 
	C238.493179,430.533081 265.540649,430.533081 293.197296,430.533081 
	C293.197296,434.964386 293.197296,439.234802 293.197296,444.001282 
z"/>
<path fill="#FFFFFF" opacity="1.000000" stroke="none" 
	d="
M355.999695,238.388275 
	C344.175781,238.388275 332.851898,238.388275 321.150940,238.388275 
	C321.150940,229.287674 321.150940,220.404755 321.150940,211.261200 
	C348.251495,211.261200 375.332214,211.261200 402.689148,211.261200 
	C402.689148,220.106110 402.689148,228.858276 402.689148,238.388260 
	C387.302155,238.388260 371.900940,238.388260 355.999695,238.388275 
z"/>
<path fill="#FEFFFF" opacity="1.000000" stroke="none" 
	d="
M236.000320,375.534973 
	C255.122238,375.534943 273.744141,375.534943 292.774933,375.534943 
	C292.774933,384.598999 292.774933,393.467499 292.774933,402.653198 
	C265.863129,402.653198 238.822006,402.653198 211.392303,402.653198 
	C211.392303,393.974213 211.392303,385.106140 211.392303,375.535004 
	C219.370712,375.535004 227.435501,375.535004 236.000320,375.534973 
z"/>
<path fill="#FFFFFF" opacity="1.000000" stroke="none" 
	d="
M261.999695,238.387741 
	C244.877014,238.387756 228.254364,238.387756 211.319092,238.387756 
	C211.319092,229.282806 211.319092,220.398361 211.319092,211.258011 
	C238.416199,211.258011 265.444824,211.258011 292.828766,211.258011 
	C292.828766,220.102722 292.828766,228.954651 292.828766,238.387726 
	C282.666779,238.387726 272.583252,238.387726 261.999695,238.387741 
z"/>
<path fill="#FFFFFF" opacity="1.000000" stroke="none" 
	d="
M293.182953,286.944946 
	C293.182953,289.093536 293.182953,290.749451 293.182953,292.793884 
	C265.818573,292.793884 238.645599,292.793884 211.238281,292.793884 
	C211.238281,283.983887 211.238281,275.235443 211.238281,266.200104 
	C238.401917,266.200104 265.456787,266.200104 293.182953,266.200104 
	C293.182953,272.941711 293.182953,279.696991 293.182953,286.944946 
z"/>
<path fill="#FFFFFF" opacity="1.000000" stroke="none" 
	d="
M372.000061,265.914246 
	C382.461945,265.914246 392.423798,265.914246 402.673401,265.914246 
	C402.673401,274.981232 402.673401,283.722992 402.673401,292.825623 
	C375.657135,292.825623 348.614349,292.825623 321.171753,292.825623 
	C321.171753,284.143250 321.171753,275.288452 321.171753,265.914246 
	C337.966827,265.914246 354.733429,265.914246 372.000061,265.914246 
z"/>
<path fill="#FFFFFF" opacity="1.000000" stroke="none" 
	d="
M233.000061,348.056335 
	C225.531235,348.056335 218.562378,348.056335 211.301147,348.056335 
	C211.301147,339.019348 211.301147,330.273773 211.301147,321.149475 
	C238.278992,321.149475 265.326935,321.149475 292.779480,321.149475 
	C292.779480,329.786530 292.779480,338.651581 292.779480,348.056335 
	C273.030212,348.056335 253.265121,348.056335 233.000061,348.056335 
z"/>
<path fill="#FFFFFF" opacity="1.000000" stroke="none" 
	d="
M402.964355,326.104279 
	C402.964355,333.558075 402.964355,340.520935 402.964355,347.767456 
	C375.560150,347.767456 348.505127,347.767456 321.111145,347.767456 
	C321.111145,339.033966 321.111145,330.297485 321.111145,321.165466 
	C348.026459,321.165466 375.078369,321.165466 402.964325,321.165466 
	C402.964325,322.496399 402.964325,324.054871 402.964355,326.104279 
z"/>
<path fill="#FEFFFE" opacity="1.000000" stroke="none" 
	d="
M369.000366,375.534424 
	C380.464172,375.534393 391.427948,375.534393 402.677551,375.534393 
	C402.677551,384.723297 402.677551,393.612152 402.677551,402.734375 
	C375.505463,402.734375 348.472168,402.734375 321.104919,402.734375 
	C321.104919,393.792999 321.104919,384.936218 321.104919,375.534454 
	C337.008362,375.534454 352.754364,375.534454 369.000366,375.534424 
z"/>
</svg>