<svg xmlns="http://www.w3.org/2000/svg" xml:space="preserve" viewBox="0 0 1024 1024"><path fill="#01AB51" d="M1 371V1h1024v1024H1V371m102.8 476.4c-.8 2.7-2.4 5.3-2.4 8-.2 18.2-.3 36.3 0 54.5.1 9 5.8 14 14.8 14h793c8.7 0 14.6-5.5 14.7-14.2v-54c-.1-8.6-5.6-13.7-14.2-14.2H430.2V829a40.9 40.9 0 0 0-42.8-42.2h-66.2v-27.6c3 0 5.7-.3 8.3 0 7.9 1 13.7-2.3 18.9-8 6.2-6.7 12.6-13.3 19.4-19.4 5.7-5 8.1-10.9 7.8-18.5-.3-12 0-23.9 0-36.6 23.7 2.3 44.8-2.8 61.9-19.7 17.3-17 21.9-38.5 20.2-61.5 12.8-1.3 25-1.9 36.9-3.8 53.3-8.7 98.3-33.1 134.9-72.9 32-34.9 52.2-75.8 58.4-122.9 2.6-19.5 2-39.5 3-59.3.2-3.5 0-7 .7-10.4 4.3-20.2 21-33 42.9-33h189.1V266l-2.3-.3c-63.8 0-127.7-.2-191.5.2-34.7.2-64 28.5-66 63.2-.7 10-.5 20.3-.5 30.4.2 44-12 84.2-37.3 120a204.6 204.6 0 0 1-167.8 87.6v-27.1c35.3-.7 67.7-10 96.9-29.3a177 177 0 0 0 76-107.5c5.7-22.8 4.6-46 5-69.1.5-38.7 18.8-66.7 52.3-85.2a95.5 95.5 0 0 1 47.3-10.5h187.9V211h-3.3c-62.8 0-125.7-.2-188.5.2a123.1 123.1 0 0 0-123.3 123.2c0 18 .6 36.3-2.8 53.7-11.2 58.6-46.2 97.5-102.3 117.2-14.5 5-29.6 7.3-45.5 6.9v-26.4c7.8-1 15.4-1.4 22.6-3 49-10.7 81.3-40.1 95.8-88 3.4-11.5 4-24 4.6-36 1-18.3-1.1-36.7 3.1-54.8 12.4-53 43.7-89.8 94-110.4a150 150 0 0 1 57.7-10.1h188v-27.1l-4.2-.2h-187a178.6 178.6 0 0 0-178.9 181.2c.5 14 .3 28.1-1.8 41.9a95.4 95.4 0 0 1-93.6 78.2v-27.2l2.4-.2a67.4 67.4 0 0 0 64.4-57c1.8-12.1 1.2-24.6 1.2-37-.2-49.3 15-93.4 46.3-131.3 39.8-48 91.1-74.3 153.6-75.6 63.8-1.3 127.7-.3 191.5-.4h6v-27.5l-3.7-.1c-62.8 0-125.6-.3-188.5 0a227.5 227.5 0 0 0-145 51.2A230.5 230.5 0 0 0 502.7 291c-4.3 22-3.6 44-3.8 66.2a73 73 0 0 1-1 13 40.3 40.3 0 0 1-40 32.4v-284c0-12.3-5-17.3-17.2-17.3H173.2c-12 0-17 5-17 16.9v487.5a68.1 68.1 0 0 0 69.3 71.4h12.9c0 13.4-.3 26.1.2 38.8.1 4 1.3 9 3.9 11.8 8.4 9.4 17.6 18.1 26.6 27 3.4 3.4 7.5 4.8 12.3 4.6 3.7-.2 7.5 0 11.5 0v27.6h-67.7a40.6 40.6 0 0 0-41.5 42v12.7h-66.2c-5.2 0-10 .8-13.7 6m795-211.5c-.8.7-2.3 1.4-2.3 2.2-.2 8.2-.1 16.5-.1 24.9h27.2V636h-24.7m25 125.5V746h-27.2v26.7h27.2v-11.2m-21.3-70.6h-6v27h27v-27h-21M595 656.5v6.5h27v-26.7h-27v20.2m151.7 6.7h26.2v-27h-27c0 9 0 17.6.8 27m-199 55H567v-27h-26.7v27h7.3m47.3-25.5v25.1h27v-27.3c-9.2.4-18 .8-27 2.2M704.5 718h13.4v-26.8h-26.7V718h13.3m66.8 0c.6-.4 1.6-.9 1.6-1.4v-25.5h-26.8v27h25.2m97-.2v-26.8H842v27c8.6 0 17 0 26.2-.2m-246.1 32.6V746h-27v26.6h27v-22.1M767.4 773h5.3v-27h-26.8v27h21.5z"/><path fill="#FCFEFD" d="M104 847.1c3.6-4.8 8.3-5.6 13.5-5.6h66.2v-12.8c.1-24 17.4-41.6 41.5-41.8 20.6-.2 41.3 0 62 0h5.7v-27.7c-4 0-7.8-.2-11.5 0-4.8.2-9-1.2-12.3-4.5-9-9-18.2-17.7-26.6-27.1a20 20 0 0 1-4-11.8c-.4-12.7-.1-25.4-.1-38.8h-13a68.1 68.1 0 0 1-67.8-55c-1-5.4-1.4-11-1.4-16.4V118c0-12 5-17 17-17h267.5c12.2 0 17.2 5 17.2 17.5v283.9a40.3 40.3 0 0 0 40-32.5 73 73 0 0 0 1-12.9c.2-22.1-.5-44.3 3.8-66.2a230.5 230.5 0 0 1 83.7-138.5c42.2-34 91-50.8 145-51.1 62.9-.4 125.7-.1 188.5-.1l3.7.1v27.5h-6c-63.8 0-127.7-.9-191.5.4-62.5 1.3-113.8 27.5-153.6 75.6-31.4 38-46.5 82-46.3 131.4 0 12.3.6 24.8-1.2 36.9a67.4 67.4 0 0 1-64.4 57l-2.4.2v27.2c45 .6 86.7-34 93.6-78.2 2.1-13.8 2.3-28 1.9-41.9a178.6 178.6 0 0 1 178.8-181.2h187c1.3 0 2.6 0 4.2.2v27.1h-188a150 150 0 0 0-57.7 10A149.9 149.9 0 0 0 584 304c-4.2 18-2.2 36.5-3 54.8-.7 12-1.3 24.5-4.7 36-14.5 47.9-46.8 77.3-95.8 88-7.2 1.6-14.8 2-22.6 3v26.4c15.9.4 31-1.8 45.5-7 56-19.6 91.1-58.5 102.3-117 3.4-17.5 2.8-35.9 2.7-53.8a123.1 123.1 0 0 1 123.4-123.2c62.8-.4 125.7-.2 188.5-.2h3.3v27.5h-188a95.5 95.5 0 0 0-47.2 10.5c-33.5 18.5-51.8 46.5-52.3 85.2-.4 23.1.7 46.3-5 69a177 177 0 0 1-76 107.6 177.3 177.3 0 0 1-96.9 29.3v27.1A204.6 204.6 0 0 0 626 479.6c25.3-35.8 37.5-76 37.3-120 0-10.1-.2-20.3.4-30.4a67.6 67.6 0 0 1 66.1-63.2c63.8-.4 127.7-.2 191.5-.2l2.3.3v27H734.5c-22 .1-38.6 13-42.9 33-.7 3.5-.5 7-.7 10.5-1 19.8-.4 39.8-3 59.3-6.2 47-26.4 88-58.4 123a228.5 228.5 0 0 1-135 72.8c-11.8 2-24 2.5-36.8 3.8 1.7 23-3 44.5-20.2 61.5-17.1 17-38.2 22-62 19.7 0 12.7-.2 24.7.1 36.6.3 7.6-2.1 13.4-7.8 18.5a301.7 301.7 0 0 0-19.4 19.5c-5.2 5.6-11 8.9-19 8-2.5-.4-5.2-.1-8.2-.1v27.6h66.2c25.2.1 42.3 17 42.9 42.2v12.5h479.4c8.6.5 14 5.6 14.2 14.2v54c-.1 8.7-6 14.1-14.7 14.1h-793c-9 0-14.7-5-14.8-13.9-.3-18.2-.2-36.3 0-54.5 0-2.7 1.6-5.3 2.6-8.3m326.3-365.6V129.1H184v438h246.3v-85.6M418.5 869H129.2v27h767v-27H418.5m-44-219.2H387c28.2 0 48.2-22.2 42.6-54.6H183.3c.4 7.5 0 14.8 1.3 21.7 4 20.1 20.8 32.9 42.4 33h147.5M213.9 841.4h189V832c0-13-4.7-17.7-17.7-17.7H225.8c-7.3 0-12.7 3.4-14 9.7-1 5.3-.5 11-.6 16.4 0 .4 1.2.8 2.7 1.2m119.6-114.4 12.3-12.4c.9-1 2.1-2.1 2.1-3.2.2-11.4.1-22.8.1-34.2h-82v33.6c0 1.2 1 2.7 2 3.7 4.6 4.8 9.5 9.3 14 14.2 2.4 2.6 4.9 3.3 8.3 3.3 10.5-.2 21-.3 31.4 0 4.6.1 8.5-.5 11.8-5z"/><path fill="#FAFDFB" d="M899.3 636h24.3v27h-27.2l.1-24.8c0-.8 1.5-1.5 2.8-2.2zM924 762v10.7h-27.3V746h27.2v16zM903.1 690.9h20.6v27h-27v-27h6.4z"/><path fill="#FFF" d="M595 656v-19.7h27V663h-27v-7zM746.2 662.8c-.3-9-.3-17.6-.3-26.5h27v26.9c-8.9 0-17.6 0-26.7-.4zM547 718.1h-6.7v-27H567v27h-20zM595 692.2c8.9-.9 17.7-1.3 26.9-1.7v27.3h-27v-25.6zM704 718.1h-12.8v-26.8H718V718H704zM770.8 718.1h-24.7v-27H773v25.6c0 .5-1.1 1-2.2 1.4zM867.8 718l-25.7.1v-27h26.2c0 9 0 18-.5 27zM622.2 751v21.7h-27v-26.6h27v5zM767 773h-21v-27h26.7v27h-5.8z"/><path fill="#02AB52" d="M430.3 482v85.2H184v-438h246.3V482M211 178.3v5h82v-26.8h-82v21.8m192-6.8v-15h-82v26.8h82v-11.8m0 279v-20H321v27H403v-7m-109.8-7v-13h-82v27.1h82v-14m63.3-205.2h46.2v-27.1h-81.5v27h35.3m-121 137.2h-24.1v27.2h81.4v-27.2h-57.3m27-137.1h30.3v-27.1h-81.5v27h51.2m30.7 48.2v-20.3h-82v26.6h82v-6.3m78.3-20.6h-50.3v27h81.5v-27h-31.2m-138 82.2h59.3v-27h-81.5v27h22.2M403 325.6v-4.4H321v26.6H403v-22.2m-34.5 50h-47.4v27.1h81.6v-27.2h-34.2z"/><path fill="#06AC54" d="M419 869h477.2v27h-767v-27H419z"/><path fill="#02AB52" d="M374 649.8H227c-21.6 0-38.4-12.8-42.4-32.9-1.3-6.9-.9-14.2-1.3-21.7h246.3c5.6 32.4-14.4 54.5-42.6 54.6h-13z"/><path fill="#08AD56" d="M213.5 841.5c-1.1-.4-2.3-.8-2.3-1.2 0-5.5-.4-11 .6-16.4 1.3-6.3 6.7-9.6 14-9.7h159.5c13 0 17.7 4.7 17.7 17.7v9.6H213.5z"/><path fill="#01AB51" d="M333.2 727.3c-3 4.3-6.9 4.9-11.5 4.8-10.4-.3-21-.2-31.4 0-3.4 0-6-.7-8.3-3.3-4.5-5-9.4-9.4-14-14.2-1-1-2-2.5-2-3.7v-33.6h82v34.2c0 1-1.3 2.3-2.2 3.2l-12.6 12.6z"/><path fill="#FAFDFB" d="M211 177.8v-21.3h82v26.8h-82v-5.5z"/><path fill="#F9FDFB" d="M403 172v11.3h-82v-26.9h82V172zM403 450.9v6.7H321v-27H403v20.3z"/><path fill="#FAFDFB" d="M293.2 444v13.6h-82v-27h82V444z"/><path fill="#FFF" d="M356 238.4h-34.8v-27.1h81.5v27H356z"/><path fill="#FEFFFF" d="M236 375.5h56.8v27.2h-81.4v-27.2H236z"/><path fill="#FFF" d="M262 238.4h-50.7v-27.1h81.5v27H262zM293.2 287v5.8h-82v-26.6h82v20.7zM372 266h30.7v26.8h-81.5V266H372zM233 348h-21.7v-26.9h81.5v27H233zM403 326.1v21.7H321v-26.6H403v4.9z"/><path fill="#FEFFFE" d="M369 375.5h33.7v27.2H321v-27.2H369z"/></svg>